<svg xmlns="http://www.w3.org/2000/svg" xmlns:xlink="http://www.w3.org/1999/xlink" width="2000" zoomAndPan="magnify" viewBox="0 0 1500 1499.999933" height="2000" preserveAspectRatio="xMidYMid meet" version="1.0"><defs><clipPath id="fd8731a728"><path d="M 25.863281 25.863281 L 1474.136719 25.863281 L 1474.136719 1474.136719 L 25.863281 1474.136719 Z M 25.863281 25.863281 " clip-rule="nonzero"/></clipPath><clipPath id="dcd08ceac3"><path d="M 100.863281 25.863281 L 1399.136719 25.863281 C 1440.558594 25.863281 1474.136719 59.441406 1474.136719 100.863281 L 1474.136719 1399.136719 C 1474.136719 1440.558594 1440.558594 1474.136719 1399.136719 1474.136719 L 100.863281 1474.136719 C 59.441406 1474.136719 25.863281 1440.558594 25.863281 1399.136719 L 25.863281 100.863281 C 25.863281 59.441406 59.441406 25.863281 100.863281 25.863281 Z M 100.863281 25.863281 " clip-rule="nonzero"/></clipPath><clipPath id="36e8a84b42"><path d="M 0.863281 0.863281 L 1449.136719 0.863281 L 1449.136719 1449.136719 L 0.863281 1449.136719 Z M 0.863281 0.863281 " clip-rule="nonzero"/></clipPath><clipPath id="a484b1ae2e"><path d="M 75.863281 0.863281 L 1374.136719 0.863281 C 1415.558594 0.863281 1449.136719 34.441406 1449.136719 75.863281 L 1449.136719 1374.136719 C 1449.136719 1415.558594 1415.558594 1449.136719 1374.136719 1449.136719 L 75.863281 1449.136719 C 34.441406 1449.136719 0.863281 1415.558594 0.863281 1374.136719 L 0.863281 75.863281 C 0.863281 34.441406 34.441406 0.863281 75.863281 0.863281 Z M 75.863281 0.863281 " clip-rule="nonzero"/></clipPath><clipPath id="7017806a12"><rect x="0" width="1450" y="0" height="1450"/></clipPath><clipPath id="10849dbaee"><path d="M 423 431 L 1069 431 L 1069 1077 L 423 1077 Z M 423 431 " clip-rule="nonzero"/></clipPath><clipPath id="b497cece9d"><path d="M 201.296875 749.496094 L 749.660156 201.136719 L 1299.082031 750.558594 L 750.71875 1298.917969 Z M 201.296875 749.496094 " clip-rule="nonzero"/></clipPath><clipPath id="d3965bb082"><path d="M 254.328125 802.53125 L 697.46875 1245.671875 C 726.757812 1274.960938 774.246094 1274.960938 803.535156 1245.671875 L 1245.675781 803.53125 C 1274.964844 774.238281 1274.964844 726.753906 1245.675781 697.464844 L 802.535156 254.324219 C 773.246094 225.035156 725.761719 225.035156 696.46875 254.324219 L 254.328125 696.464844 C 225.039062 725.753906 225.039062 773.242188 254.328125 802.53125 Z M 254.328125 802.53125 " clip-rule="nonzero"/></clipPath><clipPath id="3218a5fa42"><path d="M 201.296875 749.496094 L 749.660156 201.136719 L 1299.082031 750.558594 L 750.71875 1298.917969 Z M 201.296875 749.496094 " clip-rule="nonzero"/></clipPath><clipPath id="5f9689e56e"><path d="M 201.296875 749.496094 L 749.660156 201.136719 L 1299.082031 750.558594 L 750.71875 1298.917969 Z M 201.296875 749.496094 " clip-rule="nonzero"/></clipPath></defs><g clip-path="url(#fd8731a728)"><g clip-path="url(#dcd08ceac3)"><g transform="matrix(1, 0, 0, 1, 25, 25)"><g clip-path="url(#7017806a12)"><g clip-path="url(#36e8a84b42)"><g clip-path="url(#a484b1ae2e)"><path fill="#533afd" d="M 0.863281 0.863281 L 1449.136719 0.863281 L 1449.136719 1449.136719 L 0.863281 1449.136719 Z M 0.863281 0.863281 " fill-opacity="1" fill-rule="nonzero"/></g></g></g></g></g></g><g clip-path="url(#10849dbaee)"><g clip-path="url(#b497cece9d)"><g clip-path="url(#d3965bb082)"><g clip-path="url(#3218a5fa42)"><g clip-path="url(#5f9689e56e)"><path fill="#ffffff" d="M 1068.984375 521.261719 C 926.183594 782.109375 1006.136719 922.332031 1066.5 982.695312 L 972.464844 1076.726562 C 923.886719 1028.152344 840.578125 916.402344 858.894531 735.132812 L 523.097656 1070.929688 L 429.0625 976.898438 L 764.859375 641.101562 C 583.59375 659.417969 471.84375 576.105469 423.265625 527.527344 L 517.300781 433.496094 C 577.667969 493.867188 717.894531 573.816406 978.726562 431.015625 Z M 1068.984375 521.261719 " fill-opacity="1" fill-rule="nonzero"/></g></g></g></g></g></svg>
