<svg xmlns="http://www.w3.org/2000/svg" xmlns:xlink="http://www.w3.org/1999/xlink" width="200" zoomAndPan="magnify" viewBox="0 0 150 37.5" height="50" preserveAspectRatio="xMidYMid meet" version="1.0"><defs><g/><clipPath id="4c02a15c52"><path d="M 3.570312 0.285156 L 40.007812 0.285156 L 40.007812 36.722656 L 3.570312 36.722656 Z M 3.570312 0.285156 " clip-rule="nonzero"/></clipPath><clipPath id="c2f4e671da"><path d="M 10.972656 0.285156 L 32.605469 0.285156 C 36.691406 0.285156 40.007812 3.597656 40.007812 7.6875 L 40.007812 29.320312 C 40.007812 33.40625 36.691406 36.722656 32.605469 36.722656 L 10.972656 36.722656 C 6.882812 36.722656 3.570312 33.40625 3.570312 29.320312 L 3.570312 7.6875 C 3.570312 3.597656 6.882812 0.285156 10.972656 0.285156 Z M 10.972656 0.285156 " clip-rule="nonzero"/></clipPath><clipPath id="e20b4aa1c8"><path d="M 0.570312 0.285156 L 37.007812 0.285156 L 37.007812 36.722656 L 0.570312 36.722656 Z M 0.570312 0.285156 " clip-rule="nonzero"/></clipPath><clipPath id="b748bf2034"><path d="M 7.972656 0.285156 L 29.605469 0.285156 C 33.691406 0.285156 37.007812 3.597656 37.007812 7.6875 L 37.007812 29.320312 C 37.007812 33.40625 33.691406 36.722656 29.605469 36.722656 L 7.972656 36.722656 C 3.882812 36.722656 0.570312 33.40625 0.570312 29.320312 L 0.570312 7.6875 C 0.570312 3.597656 3.882812 0.285156 7.972656 0.285156 Z M 7.972656 0.285156 " clip-rule="nonzero"/></clipPath><clipPath id="1b42e33375"><rect x="0" width="38" y="0" height="37"/></clipPath><clipPath id="52fd01cd1d"><path d="M 13 10 L 30 10 L 30 27 L 13 27 Z M 13 10 " clip-rule="nonzero"/></clipPath><clipPath id="b32a9e9c0f"><path d="M 7.890625 18.492188 L 22.019531 4.359375 L 36.152344 18.492188 L 22.019531 32.621094 Z M 7.890625 18.492188 " clip-rule="nonzero"/></clipPath><clipPath id="ad88bc2266"><path d="M 7.890625 18.492188 L 22.019531 4.359375 L 36.152344 18.492188 L 22.019531 32.621094 Z M 7.890625 18.492188 " clip-rule="nonzero"/></clipPath><clipPath id="da7c31d733"><path d="M 85 5 L 98.460938 5 L 98.460938 19 L 85 19 Z M 85 5 " clip-rule="nonzero"/></clipPath><clipPath id="d65fa140a6"><rect x="0" width="99" y="0" height="25"/></clipPath><clipPath id="ce428e192c"><path d="M 0.0664062 1 L 4 1 L 4 7 L 0.0664062 7 Z M 0.0664062 1 " clip-rule="nonzero"/></clipPath><clipPath id="94a0c9987f"><rect x="0" width="64" y="0" height="9"/></clipPath></defs><g clip-path="url(#4c02a15c52)"><g clip-path="url(#c2f4e671da)"><g transform="matrix(1, 0, 0, 1, 3, -0.000000000000001471)"><g clip-path="url(#1b42e33375)"><g clip-path="url(#e20b4aa1c8)"><g clip-path="url(#b748bf2034)"><path fill="#533afd" d="M 0.570312 0.285156 L 37.007812 0.285156 L 37.007812 36.722656 L 0.570312 36.722656 Z M 0.570312 0.285156 " fill-opacity="1" fill-rule="nonzero"/></g></g></g></g></g></g><g clip-path="url(#52fd01cd1d)"><g clip-path="url(#b32a9e9c0f)"><g clip-path="url(#ad88bc2266)"><path fill="#ffffff" d="M 29.867188 12.710938 C 26.25 19.316406 28.273438 22.867188 29.804688 24.394531 L 27.421875 26.777344 C 26.191406 25.546875 24.082031 22.71875 24.546875 18.125 L 16.042969 26.632812 L 13.660156 24.25 L 22.164062 15.746094 C 17.574219 16.207031 14.742188 14.097656 13.511719 12.867188 L 15.894531 10.488281 C 17.421875 12.015625 20.976562 14.039062 27.582031 10.421875 Z M 29.867188 12.710938 " fill-opacity="1" fill-rule="nonzero"/></g></g></g><g transform="matrix(1, 0, 0, 1, 47, 2)"><g clip-path="url(#d65fa140a6)"><g fill="#ffffff" fill-opacity="1"><g transform="translate(0.720082, 18.452843)"><g><path d="M 1.671875 -12.984375 L 4.453125 -12.984375 L 4.453125 -7.875 L 10.015625 -7.875 L 10.015625 -12.984375 L 12.796875 -12.984375 L 12.796875 0 L 10.015625 0 L 10.015625 -5.28125 L 4.453125 -5.28125 L 4.453125 0 L 1.671875 0 Z M 1.671875 -12.984375 "/></g></g></g><g fill="#ffffff" fill-opacity="1"><g transform="translate(15.188033, 18.452843)"><g><path d="M 5.375 0.28125 C 4.539062 0.28125 3.8125 0.175781 3.1875 -0.03125 C 2.5625 -0.25 2.035156 -0.484375 1.609375 -0.734375 C 1.117188 -1.035156 0.707031 -1.378906 0.375 -1.765625 L 2.21875 -3.609375 C 2.445312 -3.359375 2.710938 -3.125 3.015625 -2.90625 C 3.273438 -2.738281 3.59375 -2.582031 3.96875 -2.4375 C 4.351562 -2.289062 4.789062 -2.21875 5.28125 -2.21875 C 6.03125 -2.21875 6.570312 -2.359375 6.90625 -2.640625 C 7.25 -2.929688 7.421875 -3.285156 7.421875 -3.703125 C 7.421875 -4.078125 7.257812 -4.375 6.9375 -4.59375 C 6.613281 -4.8125 6.207031 -5.003906 5.71875 -5.171875 C 5.238281 -5.347656 4.722656 -5.523438 4.171875 -5.703125 C 3.617188 -5.890625 3.097656 -6.132812 2.609375 -6.4375 C 2.128906 -6.75 1.726562 -7.140625 1.40625 -7.609375 C 1.082031 -8.085938 0.921875 -8.703125 0.921875 -9.453125 C 0.921875 -9.960938 1.03125 -10.445312 1.25 -10.90625 C 1.46875 -11.375 1.773438 -11.78125 2.171875 -12.125 C 2.578125 -12.476562 3.070312 -12.753906 3.65625 -12.953125 C 4.25 -13.160156 4.914062 -13.265625 5.65625 -13.265625 C 6.375 -13.265625 7.007812 -13.171875 7.5625 -12.984375 C 8.113281 -12.796875 8.566406 -12.59375 8.921875 -12.375 C 9.335938 -12.113281 9.703125 -11.820312 10.015625 -11.5 L 8.15625 -9.640625 C 7.957031 -9.847656 7.742188 -10.035156 7.515625 -10.203125 C 7.304688 -10.335938 7.050781 -10.460938 6.75 -10.578125 C 6.457031 -10.691406 6.125 -10.75 5.75 -10.75 C 5.039062 -10.75 4.535156 -10.625 4.234375 -10.375 C 3.941406 -10.132812 3.796875 -9.828125 3.796875 -9.453125 C 3.796875 -9.085938 3.957031 -8.796875 4.28125 -8.578125 C 4.601562 -8.359375 5.003906 -8.160156 5.484375 -7.984375 C 5.972656 -7.816406 6.492188 -7.640625 7.046875 -7.453125 C 7.597656 -7.265625 8.113281 -7.019531 8.59375 -6.71875 C 9.082031 -6.414062 9.488281 -6.023438 9.8125 -5.546875 C 10.132812 -5.078125 10.296875 -4.460938 10.296875 -3.703125 C 10.296875 -3.171875 10.179688 -2.664062 9.953125 -2.1875 C 9.734375 -1.707031 9.410156 -1.285156 8.984375 -0.921875 C 8.554688 -0.554688 8.039062 -0.265625 7.4375 -0.046875 C 6.832031 0.171875 6.144531 0.28125 5.375 0.28125 Z M 5.375 0.28125 "/></g></g></g><g fill="#ffffff" fill-opacity="1"><g transform="translate(26.038995, 18.452843)"><g><path d="M 5.375 0.28125 C 4.539062 0.28125 3.8125 0.175781 3.1875 -0.03125 C 2.5625 -0.25 2.035156 -0.484375 1.609375 -0.734375 C 1.117188 -1.035156 0.707031 -1.378906 0.375 -1.765625 L 2.21875 -3.609375 C 2.445312 -3.359375 2.710938 -3.125 3.015625 -2.90625 C 3.273438 -2.738281 3.59375 -2.582031 3.96875 -2.4375 C 4.351562 -2.289062 4.789062 -2.21875 5.28125 -2.21875 C 6.03125 -2.21875 6.570312 -2.359375 6.90625 -2.640625 C 7.25 -2.929688 7.421875 -3.285156 7.421875 -3.703125 C 7.421875 -4.078125 7.257812 -4.375 6.9375 -4.59375 C 6.613281 -4.8125 6.207031 -5.003906 5.71875 -5.171875 C 5.238281 -5.347656 4.722656 -5.523438 4.171875 -5.703125 C 3.617188 -5.890625 3.097656 -6.132812 2.609375 -6.4375 C 2.128906 -6.75 1.726562 -7.140625 1.40625 -7.609375 C 1.082031 -8.085938 0.921875 -8.703125 0.921875 -9.453125 C 0.921875 -9.960938 1.03125 -10.445312 1.25 -10.90625 C 1.46875 -11.375 1.773438 -11.78125 2.171875 -12.125 C 2.578125 -12.476562 3.070312 -12.753906 3.65625 -12.953125 C 4.25 -13.160156 4.914062 -13.265625 5.65625 -13.265625 C 6.375 -13.265625 7.007812 -13.171875 7.5625 -12.984375 C 8.113281 -12.796875 8.566406 -12.59375 8.921875 -12.375 C 9.335938 -12.113281 9.703125 -11.820312 10.015625 -11.5 L 8.15625 -9.640625 C 7.957031 -9.847656 7.742188 -10.035156 7.515625 -10.203125 C 7.304688 -10.335938 7.050781 -10.460938 6.75 -10.578125 C 6.457031 -10.691406 6.125 -10.75 5.75 -10.75 C 5.039062 -10.75 4.535156 -10.625 4.234375 -10.375 C 3.941406 -10.132812 3.796875 -9.828125 3.796875 -9.453125 C 3.796875 -9.085938 3.957031 -8.796875 4.28125 -8.578125 C 4.601562 -8.359375 5.003906 -8.160156 5.484375 -7.984375 C 5.972656 -7.816406 6.492188 -7.640625 7.046875 -7.453125 C 7.597656 -7.265625 8.113281 -7.019531 8.59375 -6.71875 C 9.082031 -6.414062 9.488281 -6.023438 9.8125 -5.546875 C 10.132812 -5.078125 10.296875 -4.460938 10.296875 -3.703125 C 10.296875 -3.171875 10.179688 -2.664062 9.953125 -2.1875 C 9.734375 -1.707031 9.410156 -1.285156 8.984375 -0.921875 C 8.554688 -0.554688 8.039062 -0.265625 7.4375 -0.046875 C 6.832031 0.171875 6.144531 0.28125 5.375 0.28125 Z M 5.375 0.28125 "/></g></g></g><g fill="#ffffff" fill-opacity="1"><g transform="translate(36.88996, 18.452843)"><g><path d="M 5.09375 -12.984375 L 8.25 -12.984375 L 13.265625 0 L 10.296875 0 L 9.1875 -2.96875 L 4.171875 -2.96875 L 3.0625 0 L 0.09375 0 Z M 8.25 -5.46875 L 6.71875 -9.734375 L 6.640625 -9.734375 L 5.09375 -5.46875 Z M 8.25 -5.46875 "/></g></g></g><g fill="#ffffff" fill-opacity="1"><g transform="translate(50.24499, 18.452843)"><g><path d="M 1.671875 -12.984375 L 7.140625 -12.984375 C 7.785156 -12.984375 8.363281 -12.890625 8.875 -12.703125 C 9.394531 -12.515625 9.832031 -12.265625 10.1875 -11.953125 C 10.550781 -11.648438 10.828125 -11.285156 11.015625 -10.859375 C 11.210938 -10.441406 11.3125 -10.003906 11.3125 -9.546875 C 11.3125 -9.023438 11.21875 -8.59375 11.03125 -8.25 C 10.84375 -7.914062 10.640625 -7.644531 10.421875 -7.4375 C 10.160156 -7.1875 9.867188 -6.992188 9.546875 -6.859375 C 9.992188 -6.722656 10.394531 -6.515625 10.75 -6.234375 C 11.050781 -5.984375 11.328125 -5.65625 11.578125 -5.25 C 11.835938 -4.851562 11.96875 -4.335938 11.96875 -3.703125 C 11.96875 -3.203125 11.863281 -2.722656 11.65625 -2.265625 C 11.445312 -1.816406 11.148438 -1.425781 10.765625 -1.09375 C 10.390625 -0.757812 9.925781 -0.492188 9.375 -0.296875 C 8.820312 -0.0976562 8.203125 0 7.515625 0 L 1.671875 0 Z M 7.328125 -2.40625 C 7.878906 -2.40625 8.3125 -2.550781 8.625 -2.84375 C 8.9375 -3.132812 9.09375 -3.515625 9.09375 -3.984375 C 9.09375 -4.453125 8.9375 -4.832031 8.625 -5.125 C 8.3125 -5.414062 7.878906 -5.5625 7.328125 -5.5625 L 4.453125 -5.5625 L 4.453125 -2.40625 Z M 6.953125 -7.96875 C 7.421875 -7.96875 7.785156 -8.09375 8.046875 -8.34375 C 8.304688 -8.59375 8.4375 -8.898438 8.4375 -9.265625 C 8.4375 -9.640625 8.304688 -9.953125 8.046875 -10.203125 C 7.785156 -10.453125 7.421875 -10.578125 6.953125 -10.578125 L 4.453125 -10.578125 L 4.453125 -7.96875 Z M 6.953125 -7.96875 "/></g></g></g><g fill="#ffffff" fill-opacity="1"><g transform="translate(62.672586, 18.452843)"><g><path d="M 5.09375 -12.984375 L 8.25 -12.984375 L 13.265625 0 L 10.296875 0 L 9.1875 -2.96875 L 4.171875 -2.96875 L 3.0625 0 L 0.09375 0 Z M 8.25 -5.46875 L 6.71875 -9.734375 L 6.640625 -9.734375 L 5.09375 -5.46875 Z M 8.25 -5.46875 "/></g></g></g><g fill="#ffffff" fill-opacity="1"><g transform="translate(74.914694, 18.452843)"><g><path d="M 4.078125 -10.390625 L 0.375 -10.390625 L 0.375 -12.984375 L 10.578125 -12.984375 L 10.578125 -10.390625 L 6.859375 -10.390625 L 6.859375 0 L 4.078125 0 Z M 4.078125 -10.390625 "/></g></g></g><g clip-path="url(#da7c31d733)"><g fill="#ffffff" fill-opacity="1"><g transform="translate(85.858395, 18.452843)"><g><path d="M 4.828125 -4.640625 L -0.09375 -12.984375 L 3.15625 -12.984375 L 6.171875 -7.421875 L 6.25 -7.421875 L 9.265625 -12.984375 L 12.515625 -12.984375 L 7.609375 -4.640625 L 7.609375 0 L 4.828125 0 Z M 4.828125 -4.640625 "/></g></g></g></g></g></g><g transform="matrix(1, 0, 0, 1, 67, 24)"><g clip-path="url(#94a0c9987f)"><g clip-path="url(#ce428e192c)"><g fill="#ffffff" fill-opacity="1"><g transform="translate(0.106736, 6.188271)"><g><path d="M 0.671875 -4.515625 L 2.390625 -4.515625 C 2.597656 -4.515625 2.789062 -4.476562 2.96875 -4.40625 C 3.144531 -4.332031 3.296875 -4.234375 3.421875 -4.109375 C 3.554688 -3.984375 3.660156 -3.832031 3.734375 -3.65625 C 3.804688 -3.488281 3.84375 -3.300781 3.84375 -3.09375 C 3.84375 -2.894531 3.804688 -2.707031 3.734375 -2.53125 C 3.660156 -2.363281 3.554688 -2.210938 3.421875 -2.078125 C 3.296875 -1.953125 3.144531 -1.851562 2.96875 -1.78125 C 2.789062 -1.707031 2.597656 -1.671875 2.390625 -1.671875 L 1.15625 -1.671875 L 1.15625 0 L 0.671875 0 Z M 2.390625 -2.125 C 2.679688 -2.125 2.914062 -2.210938 3.09375 -2.390625 C 3.269531 -2.566406 3.359375 -2.800781 3.359375 -3.09375 C 3.359375 -3.382812 3.269531 -3.617188 3.09375 -3.796875 C 2.914062 -3.972656 2.679688 -4.0625 2.390625 -4.0625 L 1.15625 -4.0625 L 1.15625 -2.125 Z M 2.390625 -2.125 "/></g></g></g></g><g fill="#ffffff" fill-opacity="1"><g transform="translate(5.479899, 6.188271)"><g><path d="M 2.703125 0.0625 C 2.378906 0.0625 2.078125 0.00390625 1.796875 -0.109375 C 1.515625 -0.234375 1.269531 -0.398438 1.0625 -0.609375 C 0.851562 -0.816406 0.6875 -1.0625 0.5625 -1.34375 C 0.445312 -1.632812 0.390625 -1.941406 0.390625 -2.265625 C 0.390625 -2.585938 0.445312 -2.890625 0.5625 -3.171875 C 0.6875 -3.453125 0.851562 -3.695312 1.0625 -3.90625 C 1.269531 -4.113281 1.515625 -4.273438 1.796875 -4.390625 C 2.078125 -4.515625 2.378906 -4.578125 2.703125 -4.578125 C 3.023438 -4.578125 3.328125 -4.515625 3.609375 -4.390625 C 3.898438 -4.273438 4.148438 -4.113281 4.359375 -3.90625 C 4.566406 -3.695312 4.726562 -3.453125 4.84375 -3.171875 C 4.96875 -2.890625 5.03125 -2.585938 5.03125 -2.265625 C 5.03125 -1.941406 4.96875 -1.632812 4.84375 -1.34375 C 4.726562 -1.0625 4.566406 -0.816406 4.359375 -0.609375 C 4.148438 -0.398438 3.898438 -0.234375 3.609375 -0.109375 C 3.328125 0.00390625 3.023438 0.0625 2.703125 0.0625 Z M 2.703125 -0.390625 C 2.960938 -0.390625 3.203125 -0.4375 3.421875 -0.53125 C 3.648438 -0.625 3.847656 -0.753906 4.015625 -0.921875 C 4.179688 -1.085938 4.3125 -1.285156 4.40625 -1.515625 C 4.5 -1.742188 4.546875 -1.992188 4.546875 -2.265625 C 4.546875 -2.523438 4.5 -2.769531 4.40625 -3 C 4.3125 -3.226562 4.179688 -3.425781 4.015625 -3.59375 C 3.847656 -3.757812 3.648438 -3.890625 3.421875 -3.984375 C 3.203125 -4.078125 2.960938 -4.125 2.703125 -4.125 C 2.453125 -4.125 2.210938 -4.078125 1.984375 -3.984375 C 1.765625 -3.890625 1.570312 -3.757812 1.40625 -3.59375 C 1.238281 -3.425781 1.109375 -3.226562 1.015625 -3 C 0.921875 -2.769531 0.875 -2.523438 0.875 -2.265625 C 0.875 -1.992188 0.921875 -1.742188 1.015625 -1.515625 C 1.109375 -1.285156 1.238281 -1.085938 1.40625 -0.921875 C 1.570312 -0.753906 1.765625 -0.625 1.984375 -0.53125 C 2.210938 -0.4375 2.453125 -0.390625 2.703125 -0.390625 Z M 2.703125 -0.390625 "/></g></g></g><g fill="#ffffff" fill-opacity="1"><g transform="translate(12.080118, 6.188271)"><g><path d="M 0.671875 -4.515625 L 1.15625 -4.515625 L 1.15625 0 L 0.671875 0 Z M 0.671875 -4.515625 "/></g></g></g><g fill="#ffffff" fill-opacity="1"><g transform="translate(15.096062, 6.188271)"><g><path d="M 0.671875 -4.515625 L 1.09375 -4.515625 L 3.875 -0.875 L 3.875 -4.515625 L 4.359375 -4.515625 L 4.359375 0 L 3.9375 0 L 1.15625 -3.640625 L 1.15625 0 L 0.671875 0 Z M 0.671875 -4.515625 "/></g></g></g><g fill="#ffffff" fill-opacity="1"><g transform="translate(21.308786, 6.188271)"><g><path d="M 1.546875 -4.0625 L 0.125 -4.0625 L 0.125 -4.515625 L 3.453125 -4.515625 L 3.453125 -4.0625 L 2.03125 -4.0625 L 2.03125 0 L 1.546875 0 Z M 1.546875 -4.0625 "/></g></g></g><g fill="#ffffff" fill-opacity="1"><g transform="translate(25.874686, 6.188271)"><g/></g></g><g fill="#ffffff" fill-opacity="1"><g transform="translate(28.406268, 6.188271)"><g><path d="M 2.703125 0.0625 C 2.378906 0.0625 2.078125 0.00390625 1.796875 -0.109375 C 1.515625 -0.234375 1.269531 -0.398438 1.0625 -0.609375 C 0.851562 -0.816406 0.6875 -1.0625 0.5625 -1.34375 C 0.445312 -1.632812 0.390625 -1.941406 0.390625 -2.265625 C 0.390625 -2.585938 0.445312 -2.890625 0.5625 -3.171875 C 0.6875 -3.453125 0.851562 -3.695312 1.0625 -3.90625 C 1.269531 -4.113281 1.515625 -4.273438 1.796875 -4.390625 C 2.078125 -4.515625 2.378906 -4.578125 2.703125 -4.578125 C 3.023438 -4.578125 3.328125 -4.515625 3.609375 -4.390625 C 3.898438 -4.273438 4.148438 -4.113281 4.359375 -3.90625 C 4.566406 -3.695312 4.726562 -3.453125 4.84375 -3.171875 C 4.96875 -2.890625 5.03125 -2.585938 5.03125 -2.265625 C 5.03125 -1.941406 4.96875 -1.632812 4.84375 -1.34375 C 4.726562 -1.0625 4.566406 -0.816406 4.359375 -0.609375 C 4.148438 -0.398438 3.898438 -0.234375 3.609375 -0.109375 C 3.328125 0.00390625 3.023438 0.0625 2.703125 0.0625 Z M 2.703125 -0.390625 C 2.960938 -0.390625 3.203125 -0.4375 3.421875 -0.53125 C 3.648438 -0.625 3.847656 -0.753906 4.015625 -0.921875 C 4.179688 -1.085938 4.3125 -1.285156 4.40625 -1.515625 C 4.5 -1.742188 4.546875 -1.992188 4.546875 -2.265625 C 4.546875 -2.523438 4.5 -2.769531 4.40625 -3 C 4.3125 -3.226562 4.179688 -3.425781 4.015625 -3.59375 C 3.847656 -3.757812 3.648438 -3.890625 3.421875 -3.984375 C 3.203125 -4.078125 2.960938 -4.125 2.703125 -4.125 C 2.453125 -4.125 2.210938 -4.078125 1.984375 -3.984375 C 1.765625 -3.890625 1.570312 -3.757812 1.40625 -3.59375 C 1.238281 -3.425781 1.109375 -3.226562 1.015625 -3 C 0.921875 -2.769531 0.875 -2.523438 0.875 -2.265625 C 0.875 -1.992188 0.921875 -1.742188 1.015625 -1.515625 C 1.109375 -1.285156 1.238281 -1.085938 1.40625 -0.921875 C 1.570312 -0.753906 1.765625 -0.625 1.984375 -0.53125 C 2.210938 -0.4375 2.453125 -0.390625 2.703125 -0.390625 Z M 2.703125 -0.390625 "/></g></g></g><g fill="#ffffff" fill-opacity="1"><g transform="translate(35.006486, 6.188271)"><g><path d="M 0.671875 -4.515625 L 3.75 -4.515625 L 3.75 -4.0625 L 1.15625 -4.0625 L 1.15625 -2.515625 L 3.21875 -2.515625 L 3.21875 -2.0625 L 1.15625 -2.0625 L 1.15625 0 L 0.671875 0 Z M 0.671875 -4.515625 "/></g></g></g><g fill="#ffffff" fill-opacity="1"><g transform="translate(39.959873, 6.188271)"><g/></g></g><g fill="#ffffff" fill-opacity="1"><g transform="translate(42.491455, 6.188271)"><g><path d="M 1.8125 0.0625 C 1.550781 0.0625 1.320312 0.03125 1.125 -0.03125 C 0.9375 -0.101562 0.78125 -0.179688 0.65625 -0.265625 C 0.507812 -0.367188 0.390625 -0.484375 0.296875 -0.609375 L 0.578125 -0.9375 C 0.660156 -0.832031 0.757812 -0.742188 0.875 -0.671875 C 0.976562 -0.597656 1.101562 -0.53125 1.25 -0.46875 C 1.40625 -0.414062 1.59375 -0.390625 1.8125 -0.390625 C 2.144531 -0.390625 2.398438 -0.46875 2.578125 -0.625 C 2.753906 -0.78125 2.84375 -0.976562 2.84375 -1.21875 C 2.84375 -1.375 2.804688 -1.492188 2.734375 -1.578125 C 2.660156 -1.671875 2.566406 -1.75 2.453125 -1.8125 C 2.335938 -1.882812 2.207031 -1.941406 2.0625 -1.984375 C 1.914062 -2.023438 1.765625 -2.066406 1.609375 -2.109375 C 1.453125 -2.160156 1.300781 -2.21875 1.15625 -2.28125 C 1.007812 -2.34375 0.878906 -2.414062 0.765625 -2.5 C 0.648438 -2.59375 0.554688 -2.707031 0.484375 -2.84375 C 0.421875 -2.976562 0.390625 -3.148438 0.390625 -3.359375 C 0.390625 -3.515625 0.421875 -3.664062 0.484375 -3.8125 C 0.554688 -3.96875 0.65625 -4.097656 0.78125 -4.203125 C 0.90625 -4.316406 1.054688 -4.40625 1.234375 -4.46875 C 1.410156 -4.539062 1.613281 -4.578125 1.84375 -4.578125 C 2.0625 -4.578125 2.25 -4.546875 2.40625 -4.484375 C 2.570312 -4.429688 2.710938 -4.367188 2.828125 -4.296875 C 2.953125 -4.203125 3.0625 -4.101562 3.15625 -4 L 2.84375 -3.671875 C 2.769531 -3.753906 2.6875 -3.832031 2.59375 -3.90625 C 2.5 -3.957031 2.390625 -4.003906 2.265625 -4.046875 C 2.148438 -4.097656 2.007812 -4.125 1.84375 -4.125 C 1.6875 -4.125 1.546875 -4.101562 1.421875 -4.0625 C 1.304688 -4.019531 1.207031 -3.960938 1.125 -3.890625 C 1.039062 -3.816406 0.976562 -3.734375 0.9375 -3.640625 C 0.894531 -3.554688 0.875 -3.460938 0.875 -3.359375 C 0.875 -3.160156 0.929688 -3.007812 1.046875 -2.90625 C 1.171875 -2.800781 1.320312 -2.710938 1.5 -2.640625 C 1.6875 -2.578125 1.882812 -2.515625 2.09375 -2.453125 C 2.300781 -2.398438 2.5 -2.328125 2.6875 -2.234375 C 2.875 -2.140625 3.023438 -2.015625 3.140625 -1.859375 C 3.265625 -1.703125 3.328125 -1.488281 3.328125 -1.21875 C 3.328125 -1.039062 3.289062 -0.875 3.21875 -0.71875 C 3.15625 -0.5625 3.054688 -0.421875 2.921875 -0.296875 C 2.796875 -0.179688 2.640625 -0.09375 2.453125 -0.03125 C 2.265625 0.03125 2.050781 0.0625 1.8125 0.0625 Z M 1.8125 0.0625 "/></g></g></g><g fill="#ffffff" fill-opacity="1"><g transform="translate(47.315677, 6.188271)"><g><path d="M 2 -4.515625 L 2.453125 -4.515625 L 4.328125 0 L 3.8125 0 L 3.296875 -1.265625 L 1.15625 -1.265625 L 0.640625 0 L 0.125 0 Z M 3.09375 -1.703125 L 2.21875 -3.84375 L 1.359375 -1.703125 Z M 3.09375 -1.703125 "/></g></g></g><g fill="#ffffff" fill-opacity="1"><g transform="translate(52.94717, 6.188271)"><g><path d="M 0.671875 -4.515625 L 1.15625 -4.515625 L 1.15625 -0.453125 L 3.484375 -0.453125 L 3.484375 0 L 0.671875 0 Z M 0.671875 -4.515625 "/></g></g></g><g fill="#ffffff" fill-opacity="1"><g transform="translate(57.739103, 6.188271)"><g><path d="M 0.671875 -4.515625 L 3.78125 -4.515625 L 3.78125 -4.0625 L 1.15625 -4.0625 L 1.15625 -2.578125 L 3.265625 -2.578125 L 3.265625 -2.125 L 1.15625 -2.125 L 1.15625 -0.453125 L 3.84375 -0.453125 L 3.84375 0 L 0.671875 0 Z M 0.671875 -4.515625 "/></g></g></g></g></g></svg>