<svg xmlns="http://www.w3.org/2000/svg" xmlns:xlink="http://www.w3.org/1999/xlink" width="200" zoomAndPan="magnify" viewBox="0 0 150 37.5" height="50" preserveAspectRatio="xMidYMid meet" version="1.0"><defs><g/><clipPath id="dab8462473"><path d="M 1.058594 0.878906 L 36.3125 0.878906 L 36.3125 36.128906 L 1.058594 36.128906 Z M 1.058594 0.878906 " clip-rule="nonzero"/></clipPath><clipPath id="699f649630"><path d="M 8.460938 0.878906 L 28.910156 0.878906 C 33 0.878906 36.3125 4.191406 36.3125 8.277344 L 36.3125 28.726562 C 36.3125 32.816406 33 36.128906 28.910156 36.128906 L 8.460938 36.128906 C 4.375 36.128906 1.058594 32.816406 1.058594 28.726562 L 1.058594 8.277344 C 1.058594 4.191406 4.375 0.878906 8.460938 0.878906 Z M 8.460938 0.878906 " clip-rule="nonzero"/></clipPath><clipPath id="4d8f93cddf"><path d="M 0.0585938 0.878906 L 35.3125 0.878906 L 35.3125 36.128906 L 0.0585938 36.128906 Z M 0.0585938 0.878906 " clip-rule="nonzero"/></clipPath><clipPath id="9d654f99a4"><path d="M 7.460938 0.878906 L 27.910156 0.878906 C 32 0.878906 35.3125 4.191406 35.3125 8.277344 L 35.3125 28.726562 C 35.3125 32.816406 32 36.128906 27.910156 36.128906 L 7.460938 36.128906 C 3.375 36.128906 0.0585938 32.816406 0.0585938 28.726562 L 0.0585938 8.277344 C 0.0585938 4.191406 3.375 0.878906 7.460938 0.878906 Z M 7.460938 0.878906 " clip-rule="nonzero"/></clipPath><clipPath id="e9bb7971b6"><rect x="0" width="36" y="0" height="37"/></clipPath><clipPath id="dcd4bf24fc"><path d="M 5 4 L 33 4 L 33 32 L 5 32 Z M 5 4 " clip-rule="nonzero"/></clipPath><clipPath id="4fd2a387ba"><path d="M 18.992188 31.945312 L 5 18.597656 L 18.347656 4.609375 L 32.335938 17.957031 Z M 18.992188 31.945312 " clip-rule="nonzero"/></clipPath><clipPath id="db50d389d3"><path d="M 5 6 L 22 6 L 22 23 L 5 23 Z M 5 6 " clip-rule="nonzero"/></clipPath><clipPath id="c8fd64965a"><path d="M 13.992188 27.945312 L 0 14.597656 L 13.347656 0.609375 L 27.335938 13.957031 Z M 13.992188 27.945312 " clip-rule="nonzero"/></clipPath><clipPath id="9f131f3905"><path d="M 27.128906 14.175781 L 13.136719 0.828125 L -0.207031 14.816406 L 13.78125 28.164062 Z M 27.128906 14.175781 " clip-rule="nonzero"/></clipPath><clipPath id="3d4d67dc3b"><rect x="0" width="28" y="0" height="28"/></clipPath><clipPath id="8bca562b41"><rect x="0" width="37" y="0" height="37"/></clipPath><clipPath id="71236ce919"><path d="M 0.0117188 3 L 5 3 L 5 8.972656 L 0.0117188 8.972656 Z M 0.0117188 3 " clip-rule="nonzero"/></clipPath><clipPath id="e839836e7a"><path d="M 29 3 L 33 3 L 33 8.972656 L 29 8.972656 Z M 29 3 " clip-rule="nonzero"/></clipPath><clipPath id="44bb8df93b"><rect x="0" width="44" y="0" height="9"/></clipPath></defs><g transform="matrix(1, 0, 0, 1, 109, -0.000000000000001443)"><g clip-path="url(#8bca562b41)"><g clip-path="url(#dab8462473)"><g clip-path="url(#699f649630)"><g transform="matrix(1, 0, 0, 1, 1, -0.000000000000001443)"><g clip-path="url(#e9bb7971b6)"><g clip-path="url(#4d8f93cddf)"><g clip-path="url(#9d654f99a4)"><path fill="#533afd" d="M 0.0585938 0.878906 L 35.3125 0.878906 L 35.3125 36.128906 L 0.0585938 36.128906 Z M 0.0585938 0.878906 " fill-opacity="1" fill-rule="nonzero"/></g></g></g></g></g></g><g clip-path="url(#dcd4bf24fc)"><g clip-path="url(#4fd2a387ba)"><g transform="matrix(1, 0, 0, 1, 5, 4)"><g clip-path="url(#3d4d67dc3b)"><g clip-path="url(#db50d389d3)"><g clip-path="url(#c8fd64965a)"><g clip-path="url(#9f131f3905)"><path fill="#ffffff" d="M 5.738281 9.082031 C 9.386719 15.390625 7.511719 18.871094 6.066406 20.386719 L 8.425781 22.636719 C 9.585938 21.417969 11.5625 18.632812 11.011719 14.203125 L 19.429688 22.234375 L 21.679688 19.875 L 13.257812 11.84375 C 17.710938 12.1875 20.398438 10.082031 21.5625 8.863281 L 19.203125 6.613281 C 17.761719 8.128906 14.371094 10.167969 7.898438 6.820312 Z M 5.738281 9.082031 " fill-opacity="1" fill-rule="nonzero"/></g></g></g></g></g></g></g></g></g><g fill="#ffffff" fill-opacity="1"><g transform="translate(9.234645, 21.603924)"><g><path d="M 20.640625 -2.375 C 20.929688 -2.375 21.078125 -1.984375 21.078125 -1.203125 C 21.078125 -0.398438 20.929688 0 20.640625 0 L 19.46875 0 L 19.46875 0.265625 C 19.46875 3.484375 16.382812 5.09375 10.21875 5.09375 C 7.238281 5.09375 4.9375 4.640625 3.3125 3.734375 C 1.695312 2.828125 0.890625 1.296875 0.890625 -0.859375 C 0.890625 -1.347656 0.925781 -1.925781 1 -2.59375 C 1.070312 -3.269531 1.179688 -3.90625 1.328125 -4.5 L 3.8125 -3.921875 C 3.707031 -3.503906 3.617188 -3.003906 3.546875 -2.421875 C 3.472656 -1.835938 3.4375 -1.332031 3.4375 -0.90625 C 3.4375 -0.0078125 3.648438 0.695312 4.078125 1.21875 C 4.503906 1.75 5.207031 2.132812 6.1875 2.375 C 7.175781 2.613281 8.53125 2.734375 10.25 2.734375 C 12.488281 2.734375 14.097656 2.539062 15.078125 2.15625 C 16.066406 1.78125 16.5625 1.21875 16.5625 0.46875 C 16.5625 0.289062 16.539062 0.132812 16.5 0 L 16.203125 0 C 14.460938 0 13.15625 -0.453125 12.28125 -1.359375 L 14.0625 -3.03125 C 14.289062 -2.800781 14.566406 -2.632812 14.890625 -2.53125 C 15.222656 -2.425781 15.660156 -2.375 16.203125 -2.375 Z M 8.640625 9.296875 C 8.253906 9.296875 7.929688 9.160156 7.671875 8.890625 C 7.410156 8.628906 7.28125 8.300781 7.28125 7.90625 C 7.28125 7.5 7.410156 7.160156 7.671875 6.890625 C 7.929688 6.628906 8.253906 6.5 8.640625 6.5 C 9.015625 6.5 9.332031 6.628906 9.59375 6.890625 C 9.851562 7.148438 9.984375 7.488281 9.984375 7.90625 C 9.984375 8.300781 9.851562 8.628906 9.59375 8.890625 C 9.332031 9.160156 9.015625 9.296875 8.640625 9.296875 Z M 12.140625 9.296875 C 11.753906 9.296875 11.429688 9.160156 11.171875 8.890625 C 10.910156 8.628906 10.78125 8.300781 10.78125 7.90625 C 10.78125 7.5 10.910156 7.160156 11.171875 6.890625 C 11.429688 6.628906 11.753906 6.5 12.140625 6.5 C 12.523438 6.5 12.84375 6.628906 13.09375 6.890625 C 13.351562 7.148438 13.484375 7.488281 13.484375 7.90625 C 13.484375 8.300781 13.351562 8.628906 13.09375 8.890625 C 12.84375 9.160156 12.523438 9.296875 12.140625 9.296875 Z M 12.140625 9.296875 "/></g></g></g><g fill="#ffffff" fill-opacity="1"><g transform="translate(29.863452, 21.603924)"><g><path d="M 2.34375 -10.78125 L 4.90625 -10.78125 L 4.90625 0 L 0 0 C -0.289062 0 -0.4375 -0.398438 -0.4375 -1.203125 C -0.4375 -1.984375 -0.289062 -2.375 0 -2.375 L 2.34375 -2.375 Z M 1.890625 -12.328125 C 1.503906 -12.328125 1.179688 -12.457031 0.921875 -12.71875 C 0.660156 -12.988281 0.53125 -13.320312 0.53125 -13.71875 C 0.53125 -14.125 0.660156 -14.457031 0.921875 -14.71875 C 1.179688 -14.988281 1.503906 -15.125 1.890625 -15.125 C 2.265625 -15.125 2.582031 -14.992188 2.84375 -14.734375 C 3.101562 -14.472656 3.234375 -14.132812 3.234375 -13.71875 C 3.234375 -13.320312 3.101562 -12.988281 2.84375 -12.71875 C 2.582031 -12.457031 2.265625 -12.328125 1.890625 -12.328125 Z M 5.390625 -12.328125 C 5.003906 -12.328125 4.679688 -12.457031 4.421875 -12.71875 C 4.160156 -12.988281 4.03125 -13.320312 4.03125 -13.71875 C 4.03125 -14.125 4.160156 -14.457031 4.421875 -14.71875 C 4.679688 -14.988281 5.003906 -15.125 5.390625 -15.125 C 5.773438 -15.125 6.09375 -14.992188 6.34375 -14.734375 C 6.601562 -14.472656 6.734375 -14.132812 6.734375 -13.71875 C 6.734375 -13.320312 6.601562 -12.988281 6.34375 -12.71875 C 6.09375 -12.457031 5.773438 -12.328125 5.390625 -12.328125 Z M 5.390625 -12.328125 "/></g></g></g><g fill="#ffffff" fill-opacity="1"><g transform="translate(36.311335, 21.603924)"><g><path d="M 7.1875 -2.375 C 7.476562 -2.375 7.625 -1.984375 7.625 -1.203125 C 7.625 -0.398438 7.476562 0 7.1875 0 L 2 0 L 2 -16.421875 L 4.546875 -16.421875 L 4.546875 -2.375 Z M 7.1875 -2.375 "/></g></g></g><g fill="#ffffff" fill-opacity="1"><g transform="translate(43.490428, 21.603924)"><g><path d="M 2.34375 -10.78125 L 4.90625 -10.78125 L 4.90625 0 L 0 0 C -0.289062 0 -0.4375 -0.398438 -0.4375 -1.203125 C -0.4375 -1.984375 -0.289062 -2.375 0 -2.375 L 2.34375 -2.375 Z M 3.421875 4.859375 C 2.992188 4.859375 2.640625 4.707031 2.359375 4.40625 C 2.078125 4.113281 1.9375 3.75 1.9375 3.3125 C 1.9375 2.863281 2.078125 2.492188 2.359375 2.203125 C 2.640625 1.921875 2.992188 1.78125 3.421875 1.78125 C 3.847656 1.78125 4.203125 1.921875 4.484375 2.203125 C 4.765625 2.492188 4.90625 2.863281 4.90625 3.3125 C 4.90625 3.75 4.765625 4.113281 4.484375 4.40625 C 4.203125 4.707031 3.847656 4.859375 3.421875 4.859375 Z M 3.421875 4.859375 "/></g></g></g><g fill="#ffffff" fill-opacity="1"><g transform="translate(49.938312, 21.603924)"><g><path d="M 7.1875 -2.375 C 7.476562 -2.375 7.625 -1.984375 7.625 -1.203125 C 7.625 -0.398438 7.476562 0 7.1875 0 L 2 0 L 2 -16.421875 L 4.546875 -16.421875 L 4.546875 -2.375 Z M 7.1875 -2.375 "/></g></g></g><g fill="#ffffff" fill-opacity="1"><g transform="translate(57.117405, 21.603924)"><g><path d="M 3.828125 -2.375 C 4.128906 -2.375 4.28125 -1.984375 4.28125 -1.203125 C 4.28125 -0.398438 4.128906 0 3.828125 0 L 0 0 C -0.289062 0 -0.4375 -0.398438 -0.4375 -1.203125 C -0.4375 -1.984375 -0.289062 -2.375 0 -2.375 Z M 3.828125 -2.375 "/></g></g></g><g fill="#ffffff" fill-opacity="1"><g transform="translate(60.950682, 21.603924)"><g><path d="M 3.828125 -2.375 C 4.128906 -2.375 4.28125 -1.984375 4.28125 -1.203125 C 4.28125 -0.398438 4.128906 0 3.828125 0 L 0 0 C -0.289062 0 -0.4375 -0.398438 -0.4375 -1.203125 C -0.4375 -1.984375 -0.289062 -2.375 0 -2.375 Z M 3.828125 -2.375 "/></g></g></g><g fill="#ffffff" fill-opacity="1"><g transform="translate(64.78396, 21.603924)"><g><path d="M 3.828125 -2.375 C 4.128906 -2.375 4.28125 -1.984375 4.28125 -1.203125 C 4.28125 -0.398438 4.128906 0 3.828125 0 L 0 0 C -0.289062 0 -0.4375 -0.398438 -0.4375 -1.203125 C -0.4375 -1.984375 -0.289062 -2.375 0 -2.375 Z M 3.828125 -2.375 "/></g></g></g><g fill="#ffffff" fill-opacity="1"><g transform="translate(68.617237, 21.603924)"><g><path d="M 21.28125 -2.375 C 21.582031 -2.375 21.734375 -1.984375 21.734375 -1.203125 C 21.734375 -0.398438 21.582031 0 21.28125 0 L 20.0625 0 C 18.8125 0 17.78125 -0.316406 16.96875 -0.953125 C 16.269531 -0.316406 15.234375 0 13.859375 0 C 12.515625 0 11.441406 -0.316406 10.640625 -0.953125 C 9.941406 -0.316406 8.90625 0 7.53125 0 C 6.1875 0 5.117188 -0.316406 4.328125 -0.953125 C 3.597656 -0.316406 2.523438 0 1.109375 0 L 0 0 C -0.289062 0 -0.4375 -0.398438 -0.4375 -1.203125 C -0.4375 -1.984375 -0.289062 -2.375 0 -2.375 L 0.90625 -2.375 C 1.707031 -2.375 2.253906 -2.53125 2.546875 -2.84375 C 2.847656 -3.164062 3 -3.71875 3 -4.5 L 3 -8.578125 L 5.546875 -8.578125 L 5.546875 -4.484375 C 5.546875 -3.828125 5.476562 -3.242188 5.34375 -2.734375 C 5.769531 -2.492188 6.363281 -2.375 7.125 -2.375 C 7.976562 -2.375 8.554688 -2.523438 8.859375 -2.828125 C 9.160156 -3.140625 9.3125 -3.695312 9.3125 -4.5 L 9.3125 -9.6875 L 11.859375 -9.6875 L 11.859375 -4.484375 C 11.859375 -3.828125 11.789062 -3.242188 11.65625 -2.734375 C 12.09375 -2.492188 12.6875 -2.375 13.4375 -2.375 C 14.289062 -2.375 14.867188 -2.523438 15.171875 -2.828125 C 15.472656 -3.140625 15.625 -3.695312 15.625 -4.5 L 15.625 -10.796875 L 18.1875 -10.796875 L 18.1875 -4.484375 C 18.1875 -3.828125 18.117188 -3.234375 17.984375 -2.703125 C 18.347656 -2.484375 18.8125 -2.375 19.375 -2.375 Z M 21.28125 -2.375 "/></g></g></g><g fill="#ffffff" fill-opacity="1"><g transform="translate(89.888622, 21.603924)"><g><path d="M 11.359375 -2.375 L 12.28125 -2.375 L 11.921875 0 L 0 0 C -0.289062 0 -0.4375 -0.398438 -0.4375 -1.203125 C -0.4375 -1.984375 -0.289062 -2.375 0 -2.375 L 8.796875 -2.375 L 8.796875 -5.75 C 8.796875 -6.863281 8.4375 -7.753906 7.71875 -8.421875 C 7.007812 -9.085938 6.054688 -9.421875 4.859375 -9.421875 C 3.554688 -9.421875 2.304688 -9.066406 1.109375 -8.359375 L 0.015625 -10.421875 C 1.460938 -11.335938 3.078125 -11.796875 4.859375 -11.796875 C 6.109375 -11.796875 7.222656 -11.535156 8.203125 -11.015625 C 9.191406 -10.503906 9.960938 -9.789062 10.515625 -8.875 C 11.078125 -7.957031 11.359375 -6.914062 11.359375 -5.75 Z M 11.359375 -2.375 "/></g></g></g><g transform="matrix(1, 0, 0, 1, 59, 23)"><g clip-path="url(#44bb8df93b)"><g clip-path="url(#71236ce919)"><g fill="#ffffff" fill-opacity="1"><g transform="translate(0.135861, 6.485414)"><g><path d="M 4.5 -0.640625 C 4.570312 -0.640625 4.609375 -0.53125 4.609375 -0.3125 C 4.609375 -0.101562 4.570312 0 4.5 0 L 3.453125 0 C 3.097656 0 2.765625 -0.0507812 2.453125 -0.15625 C 2.296875 -0.101562 2.140625 -0.0625 1.984375 -0.03125 C 1.742188 0.0078125 1.550781 0.0546875 1.40625 0.109375 C 1.257812 0.160156 1.140625 0.234375 1.046875 0.328125 C 0.960938 0.421875 0.921875 0.550781 0.921875 0.71875 C 0.921875 0.957031 1.019531 1.148438 1.21875 1.296875 C 1.414062 1.453125 1.675781 1.53125 2 1.53125 C 2.164062 1.53125 2.34375 1.507812 2.53125 1.46875 C 2.71875 1.425781 2.875 1.375 3 1.3125 L 3.328125 1.875 C 3.160156 1.957031 2.953125 2.023438 2.703125 2.078125 C 2.460938 2.140625 2.226562 2.171875 2 2.171875 C 1.664062 2.171875 1.363281 2.109375 1.09375 1.984375 C 0.832031 1.859375 0.625 1.679688 0.46875 1.453125 C 0.3125 1.234375 0.234375 0.988281 0.234375 0.71875 C 0.234375 0.320312 0.363281 0.0234375 0.625 -0.171875 C 0.894531 -0.367188 1.222656 -0.515625 1.609375 -0.609375 C 1.191406 -0.953125 0.910156 -1.394531 0.765625 -1.9375 L 1.34375 -2.921875 C 1.664062 -3.015625 2.007812 -3.0625 2.375 -3.0625 C 2.90625 -3.0625 3.3125 -2.957031 3.59375 -2.75 C 3.882812 -2.539062 4.03125 -2.242188 4.03125 -1.859375 C 4.03125 -1.628906 3.972656 -1.410156 3.859375 -1.203125 C 3.742188 -0.992188 3.582031 -0.804688 3.375 -0.640625 Z M 1.390625 -2.25 C 1.460938 -1.925781 1.59375 -1.640625 1.78125 -1.390625 C 1.96875 -1.148438 2.195312 -0.96875 2.46875 -0.84375 C 2.75 -0.957031 2.96875 -1.101562 3.125 -1.28125 C 3.28125 -1.457031 3.359375 -1.648438 3.359375 -1.859375 C 3.359375 -2.054688 3.28125 -2.203125 3.125 -2.296875 C 2.976562 -2.390625 2.726562 -2.4375 2.375 -2.4375 C 2.1875 -2.4375 2.015625 -2.421875 1.859375 -2.390625 C 1.710938 -2.359375 1.554688 -2.3125 1.390625 -2.25 Z M 1.390625 -2.25 "/></g></g></g></g><g fill="#ffffff" fill-opacity="1"><g transform="translate(4.634063, 6.485414)"><g><path d="M 2.3125 -0.640625 C 2.394531 -0.640625 2.4375 -0.53125 2.4375 -0.3125 C 2.4375 -0.101562 2.394531 0 2.3125 0 L 1.984375 0 C 1.648438 0 1.375 -0.0820312 1.15625 -0.25 C 0.96875 -0.0820312 0.679688 0 0.296875 0 L 0 0 C -0.0820312 0 -0.125 -0.101562 -0.125 -0.3125 C -0.125 -0.53125 -0.0820312 -0.640625 0 -0.640625 L 0.25 -0.640625 C 0.457031 -0.640625 0.601562 -0.679688 0.6875 -0.765625 C 0.769531 -0.847656 0.8125 -0.992188 0.8125 -1.203125 L 0.8125 -2.875 L 1.484375 -2.875 L 1.484375 -1.203125 C 1.484375 -1.023438 1.46875 -0.863281 1.4375 -0.71875 C 1.539062 -0.664062 1.664062 -0.640625 1.8125 -0.640625 Z M 0.671875 1.203125 C 0.566406 1.203125 0.476562 1.164062 0.40625 1.09375 C 0.34375 1.03125 0.3125 0.941406 0.3125 0.828125 C 0.3125 0.722656 0.34375 0.632812 0.40625 0.5625 C 0.476562 0.488281 0.566406 0.453125 0.671875 0.453125 C 0.773438 0.453125 0.859375 0.488281 0.921875 0.5625 C 0.992188 0.632812 1.03125 0.722656 1.03125 0.828125 C 1.03125 0.941406 0.992188 1.03125 0.921875 1.09375 C 0.859375 1.164062 0.773438 1.203125 0.671875 1.203125 Z M 1.609375 1.203125 C 1.503906 1.203125 1.414062 1.164062 1.34375 1.09375 C 1.28125 1.03125 1.25 0.941406 1.25 0.828125 C 1.25 0.722656 1.28125 0.632812 1.34375 0.5625 C 1.414062 0.488281 1.503906 0.453125 1.609375 0.453125 C 1.710938 0.453125 1.796875 0.488281 1.859375 0.5625 C 1.929688 0.632812 1.96875 0.722656 1.96875 0.828125 C 1.96875 0.941406 1.929688 1.03125 1.859375 1.09375 C 1.796875 1.164062 1.710938 1.203125 1.609375 1.203125 Z M 1.609375 1.203125 "/></g></g></g><g fill="#ffffff" fill-opacity="1"><g transform="translate(6.951319, 6.485414)"><g><path d="M 2.3125 -0.640625 C 2.394531 -0.640625 2.4375 -0.53125 2.4375 -0.3125 C 2.4375 -0.101562 2.394531 0 2.3125 0 L 1.984375 0 C 1.648438 0 1.375 -0.0820312 1.15625 -0.25 C 0.96875 -0.0820312 0.679688 0 0.296875 0 L 0 0 C -0.0820312 0 -0.125 -0.101562 -0.125 -0.3125 C -0.125 -0.53125 -0.0820312 -0.640625 0 -0.640625 L 0.25 -0.640625 C 0.457031 -0.640625 0.601562 -0.679688 0.6875 -0.765625 C 0.769531 -0.847656 0.8125 -0.992188 0.8125 -1.203125 L 0.8125 -2.875 L 1.484375 -2.875 L 1.484375 -1.203125 C 1.484375 -1.023438 1.46875 -0.863281 1.4375 -0.71875 C 1.539062 -0.664062 1.664062 -0.640625 1.8125 -0.640625 Z M 1.09375 1.296875 C 0.976562 1.296875 0.878906 1.253906 0.796875 1.171875 C 0.722656 1.097656 0.6875 1 0.6875 0.875 C 0.6875 0.757812 0.722656 0.660156 0.796875 0.578125 C 0.878906 0.503906 0.976562 0.46875 1.09375 0.46875 C 1.207031 0.46875 1.300781 0.503906 1.375 0.578125 C 1.445312 0.660156 1.484375 0.757812 1.484375 0.875 C 1.484375 1 1.445312 1.097656 1.375 1.171875 C 1.300781 1.253906 1.207031 1.296875 1.09375 1.296875 Z M 1.09375 1.296875 "/></g></g></g><g fill="#ffffff" fill-opacity="1"><g transform="translate(9.268574, 6.485414)"><g><path d="M 0.453125 -4.390625 L 1.140625 -4.390625 L 1.140625 0 L 0 0 C -0.0820312 0 -0.125 -0.101562 -0.125 -0.3125 C -0.125 -0.53125 -0.0820312 -0.640625 0 -0.640625 L 0.453125 -0.640625 Z M 0.453125 -4.390625 "/></g></g></g><g fill="#ffffff" fill-opacity="1"><g transform="translate(10.880578, 6.485414)"><g><path d="M 1.21875 0 L 0.53125 0 L 0.53125 -4.390625 L 1.21875 -4.390625 Z M 1.21875 0 "/></g></g></g><g fill="#ffffff" fill-opacity="1"><g transform="translate(12.628891, 6.485414)"><g/></g></g><g fill="#ffffff" fill-opacity="1"><g transform="translate(14.229042, 6.485414)"><g><path d="M 3.265625 -3 C 3.648438 -3 3.976562 -2.914062 4.25 -2.75 C 4.519531 -2.582031 4.71875 -2.347656 4.84375 -2.046875 C 4.976562 -1.753906 5.046875 -1.429688 5.046875 -1.078125 L 5.046875 0 L 0.234375 0 L 0.234375 -0.640625 L 0.734375 -0.640625 L 0.734375 -4.390625 L 1.40625 -4.390625 L 1.40625 -1.71875 C 1.570312 -2.101562 1.804688 -2.410156 2.109375 -2.640625 C 2.410156 -2.878906 2.796875 -3 3.265625 -3 Z M 4.359375 -0.640625 L 4.359375 -1.078125 C 4.359375 -1.492188 4.257812 -1.8125 4.0625 -2.03125 C 3.875 -2.257812 3.613281 -2.375 3.28125 -2.375 C 3 -2.375 2.726562 -2.296875 2.46875 -2.140625 C 2.21875 -1.984375 2.003906 -1.769531 1.828125 -1.5 C 1.648438 -1.238281 1.53125 -0.953125 1.46875 -0.640625 Z M 4.359375 -0.640625 "/></g></g></g><g fill="#ffffff" fill-opacity="1"><g transform="translate(19.633997, 6.485414)"><g><path d="M 1.921875 -0.640625 C 1.992188 -0.640625 2.03125 -0.53125 2.03125 -0.3125 C 2.03125 -0.101562 1.992188 0 1.921875 0 L 0.53125 0 L 0.53125 -4.390625 L 1.21875 -4.390625 L 1.21875 -0.640625 Z M 1.921875 -0.640625 "/></g></g></g><g fill="#ffffff" fill-opacity="1"><g transform="translate(21.55418, 6.485414)"><g><path d="M 4 -0.640625 C 4.070312 -0.640625 4.109375 -0.53125 4.109375 -0.3125 C 4.109375 -0.101562 4.070312 0 4 0 L 0 0 C -0.0820312 0 -0.125 -0.101562 -0.125 -0.3125 C -0.125 -0.53125 -0.0820312 -0.640625 0 -0.640625 L 0.71875 -0.640625 C 0.539062 -0.890625 0.453125 -1.171875 0.453125 -1.484375 C 0.453125 -1.785156 0.523438 -2.050781 0.671875 -2.28125 C 0.816406 -2.519531 1.015625 -2.707031 1.265625 -2.84375 C 1.515625 -2.988281 1.789062 -3.0625 2.09375 -3.0625 C 2.476562 -3.0625 2.882812 -2.953125 3.3125 -2.734375 L 3.3125 -0.640625 Z M 1.125 -1.5 C 1.125 -1.28125 1.1875 -1.09375 1.3125 -0.9375 C 1.4375 -0.78125 1.609375 -0.679688 1.828125 -0.640625 L 2.640625 -0.640625 L 2.640625 -2.328125 C 2.429688 -2.390625 2.253906 -2.421875 2.109375 -2.421875 C 1.921875 -2.421875 1.75 -2.378906 1.59375 -2.296875 C 1.445312 -2.210938 1.332031 -2.097656 1.25 -1.953125 C 1.164062 -1.816406 1.125 -1.664062 1.125 -1.5 Z M 1.640625 -3.578125 C 1.535156 -3.578125 1.445312 -3.609375 1.375 -3.671875 C 1.3125 -3.742188 1.28125 -3.835938 1.28125 -3.953125 C 1.28125 -4.054688 1.3125 -4.144531 1.375 -4.21875 C 1.445312 -4.289062 1.535156 -4.328125 1.640625 -4.328125 C 1.742188 -4.328125 1.828125 -4.289062 1.890625 -4.21875 C 1.960938 -4.144531 2 -4.054688 2 -3.953125 C 2 -3.835938 1.960938 -3.742188 1.890625 -3.671875 C 1.828125 -3.609375 1.742188 -3.578125 1.640625 -3.578125 Z M 2.578125 -3.578125 C 2.472656 -3.578125 2.382812 -3.609375 2.3125 -3.671875 C 2.25 -3.742188 2.21875 -3.835938 2.21875 -3.953125 C 2.21875 -4.054688 2.25 -4.144531 2.3125 -4.21875 C 2.382812 -4.289062 2.472656 -4.328125 2.578125 -4.328125 C 2.679688 -4.328125 2.765625 -4.289062 2.828125 -4.21875 C 2.898438 -4.144531 2.9375 -4.054688 2.9375 -3.953125 C 2.9375 -3.835938 2.898438 -3.742188 2.828125 -3.671875 C 2.765625 -3.609375 2.679688 -3.578125 2.578125 -3.578125 Z M 2.578125 -3.578125 "/></g></g></g><g fill="#ffffff" fill-opacity="1"><g transform="translate(25.554556, 6.485414)"><g><path d="M 0.625 -2.875 L 1.3125 -2.875 L 1.3125 0 L 0 0 C -0.0820312 0 -0.125 -0.101562 -0.125 -0.3125 C -0.125 -0.53125 -0.0820312 -0.640625 0 -0.640625 L 0.625 -0.640625 Z M 0.984375 -3.28125 C 0.867188 -3.28125 0.769531 -3.316406 0.6875 -3.390625 C 0.613281 -3.472656 0.578125 -3.578125 0.578125 -3.703125 C 0.578125 -3.816406 0.613281 -3.910156 0.6875 -3.984375 C 0.769531 -4.066406 0.867188 -4.109375 0.984375 -4.109375 C 1.097656 -4.109375 1.191406 -4.066406 1.265625 -3.984375 C 1.335938 -3.910156 1.375 -3.816406 1.375 -3.703125 C 1.375 -3.578125 1.335938 -3.472656 1.265625 -3.390625 C 1.191406 -3.316406 1.097656 -3.28125 0.984375 -3.28125 Z M 0.984375 -3.28125 "/></g></g></g><g fill="#ffffff" fill-opacity="1"><g transform="translate(27.279161, 6.485414)"><g/></g></g><g clip-path="url(#e839836e7a)"><g fill="#ffffff" fill-opacity="1"><g transform="translate(28.879311, 6.485414)"><g><path d="M 0.890625 2.171875 C 0.691406 1.953125 0.53125 1.691406 0.40625 1.390625 C 0.289062 1.097656 0.234375 0.789062 0.234375 0.46875 C 0.234375 0.132812 0.289062 -0.15625 0.40625 -0.40625 C 0.53125 -0.664062 0.703125 -0.851562 0.921875 -0.96875 C 0.941406 -1.226562 0.976562 -1.476562 1.03125 -1.71875 C 1.082031 -1.96875 1.203125 -2.222656 1.390625 -2.484375 C 1.585938 -2.742188 1.875 -2.875 2.25 -2.875 C 2.582031 -2.875 2.890625 -2.765625 3.171875 -2.546875 C 3.460938 -2.328125 3.6875 -2.023438 3.84375 -1.640625 C 4.007812 -1.265625 4.082031 -0.851562 4.0625 -0.40625 C 3.769531 -0.269531 3.457031 -0.164062 3.125 -0.09375 C 2.789062 -0.03125 2.488281 0 2.21875 0 C 1.851562 0 1.5 -0.0703125 1.15625 -0.21875 C 1 -0.0195312 0.921875 0.210938 0.921875 0.484375 C 0.921875 0.722656 0.96875 0.957031 1.0625 1.1875 C 1.164062 1.425781 1.296875 1.628906 1.453125 1.796875 Z M 2.21875 -0.640625 C 2.582031 -0.640625 2.96875 -0.695312 3.375 -0.8125 C 3.34375 -1.070312 3.269531 -1.3125 3.15625 -1.53125 C 3.050781 -1.75 2.921875 -1.921875 2.765625 -2.046875 C 2.609375 -2.171875 2.445312 -2.234375 2.28125 -2.234375 C 2.070312 -2.234375 1.910156 -2.113281 1.796875 -1.875 C 1.691406 -1.644531 1.617188 -1.265625 1.578125 -0.734375 C 1.773438 -0.671875 1.988281 -0.640625 2.21875 -0.640625 Z M 2.21875 -0.640625 "/></g></g></g></g><g fill="#ffffff" fill-opacity="1"><g transform="translate(33.371591, 6.485414)"><g><path d="M 1.921875 -0.640625 C 1.992188 -0.640625 2.03125 -0.53125 2.03125 -0.3125 C 2.03125 -0.101562 1.992188 0 1.921875 0 L 0.53125 0 L 0.53125 -4.390625 L 1.21875 -4.390625 L 1.21875 -0.640625 Z M 1.921875 -0.640625 "/></g></g></g><g fill="#ffffff" fill-opacity="1"><g transform="translate(35.291774, 6.485414)"><g><path d="M 5.875 -0.640625 C 5.957031 -0.640625 6 -0.53125 6 -0.3125 C 6 -0.101562 5.957031 0 5.875 0 L 0 0 C -0.0820312 0 -0.125 -0.101562 -0.125 -0.3125 C -0.125 -0.53125 -0.0820312 -0.640625 0 -0.640625 L 0.6875 -0.640625 L 0.6875 -4.390625 L 1.359375 -4.390625 L 1.359375 -1.71875 C 1.523438 -2.101562 1.757812 -2.410156 2.0625 -2.640625 C 2.363281 -2.878906 2.75 -3 3.21875 -3 C 3.601562 -3 3.929688 -2.914062 4.203125 -2.75 C 4.472656 -2.582031 4.671875 -2.347656 4.796875 -2.046875 C 4.929688 -1.753906 5 -1.429688 5 -1.078125 L 5 -0.640625 Z M 4.3125 -0.640625 L 4.3125 -1.078125 C 4.3125 -1.492188 4.210938 -1.8125 4.015625 -2.03125 C 3.828125 -2.257812 3.566406 -2.375 3.234375 -2.375 C 2.953125 -2.375 2.679688 -2.296875 2.421875 -2.140625 C 2.171875 -1.984375 1.957031 -1.769531 1.78125 -1.5 C 1.601562 -1.238281 1.484375 -0.953125 1.421875 -0.640625 Z M 3.234375 -3.515625 C 3.117188 -3.515625 3.019531 -3.550781 2.9375 -3.625 C 2.863281 -3.707031 2.828125 -3.8125 2.828125 -3.9375 C 2.828125 -4.050781 2.863281 -4.144531 2.9375 -4.21875 C 3.019531 -4.300781 3.117188 -4.34375 3.234375 -4.34375 C 3.347656 -4.34375 3.441406 -4.300781 3.515625 -4.21875 C 3.585938 -4.144531 3.625 -4.050781 3.625 -3.9375 C 3.625 -3.8125 3.585938 -3.707031 3.515625 -3.625 C 3.441406 -3.550781 3.347656 -3.515625 3.234375 -3.515625 Z M 3.234375 -3.515625 "/></g></g></g><g fill="#ffffff" fill-opacity="1"><g transform="translate(41.176771, 6.485414)"><g><path d="M 0.625 -2.875 L 1.3125 -2.875 L 1.3125 0 L 0 0 C -0.0820312 0 -0.125 -0.101562 -0.125 -0.3125 C -0.125 -0.53125 -0.0820312 -0.640625 0 -0.640625 L 0.625 -0.640625 Z M 0.984375 -3.28125 C 0.867188 -3.28125 0.769531 -3.316406 0.6875 -3.390625 C 0.613281 -3.472656 0.578125 -3.578125 0.578125 -3.703125 C 0.578125 -3.816406 0.613281 -3.910156 0.6875 -3.984375 C 0.769531 -4.066406 0.867188 -4.109375 0.984375 -4.109375 C 1.097656 -4.109375 1.191406 -4.066406 1.265625 -3.984375 C 1.335938 -3.910156 1.375 -3.816406 1.375 -3.703125 C 1.375 -3.578125 1.335938 -3.472656 1.265625 -3.390625 C 1.191406 -3.316406 1.097656 -3.28125 0.984375 -3.28125 Z M 0.984375 -3.28125 "/></g></g></g></g></g></svg>